# xmcd CD database file
#
# Track frame offsets:
#	150
#	34679
#	67279
#	102522
#	122048
#	156940
#	176625
#	217923
#	235333
#	290995
#
# Disc length: 4501 seconds
#
# Revision: 0
# Processed by: cddbd v1.5.2PL0 Copyright (c) Steve Scherf et al.
# Submitted via: CDex 1.70beta2
#
DISCID=9b11930a
DTITLE=Wynton Marsalis and Eric Clapton - Play The Blues
DYEAR=2011
DGENRE=Blues
TTITLE0=Ice Cream
TTITLE1=Forty-Four
TTITLE2=Joe Turner's Blues
TTITLE3=The Last Time
TTITLE4=Careless Love
TTITLE5=Kidman Blues
TTITLE6=Layla
TTITLE7=Joliet Bound
TTITLE8=Just A Closer Walk With Thee
TTITLE9=Corrine, Corrina
EXTD=YEAR: 2011
EXTT0=
EXTT1=
EXTT2=
EXTT3=
EXTT4=
EXTT5=
EXTT6=
EXTT7=
EXTT8=
EXTT9=
PLAYORDER=
